HIERARCHY
ROOT Hips
{
	OFFSET -44.602631 92.727097 387.457703
	CHANNELS 6 Xposition Yposition Zposition Zrotation Yrotation Xrotation 
	JOINT RightUpLeg
	{
		OFFSET 0.103457 1.857834 10.548504
		CHANNELS 3 Xrotation Yrotation Zrotation
		JOINT RightLeg
		{
			OFFSET 43.499996 -0.000046 0.000000
			CHANNELS 3 Xrotation Yrotation Zrotation
			JOINT RightFoot
			{
				OFFSET 42.372192 0.000027 0.000002
				CHANNELS 3 Xrotation Yrotation Zrotation
				JOINT RightToe
				{
					OFFSET 17.299994 -0.000003 -0.000001
					CHANNELS 3 Xrotation Yrotation Zrotation
					End Site
					{
						OFFSET 0.000000 0.000000 0.000000
					}
				}
			}
		}
	}
	JOINT LeftUpLeg
	{
		OFFSET 0.103456 1.857832 -10.548504
		CHANNELS 3 Xrotation Yrotation Zrotation
		JOINT LeftLeg
		{
			OFFSET 43.500046 -0.000011 0.000010
			CHANNELS 3 Xrotation Yrotation Zrotation
			JOINT LeftFoot
			{
				OFFSET 42.372261 -0.000034 0.000021
				CHANNELS 3 Xrotation Yrotation Zrotation
				JOINT LeftToe
				{
					OFFSET 17.300011 0.000001 0.000002
					CHANNELS 3 Xrotation Yrotation Zrotation
					End Site
					{
						OFFSET 0.000000 0.000000 0.000000
					}
				}
			}
		}
	}
	JOINT Spine
	{
		OFFSET 6.901965 -2.603721 0.000001
		CHANNELS 3 Xrotation Yrotation Zrotation
		JOINT Spine1
		{
			OFFSET 12.588100 0.000000 -0.000000
			CHANNELS 3 Xrotation Yrotation Zrotation
			JOINT Spine2
			{
				OFFSET 12.343206 0.000005 0.000000
				CHANNELS 3 Xrotation Yrotation Zrotation
				JOINT Neck
				{
					OFFSET 25.832893 -0.000008 0.000000
					CHANNELS 3 Xrotation Yrotation Zrotation
					JOINT Head
					{
						OFFSET 11.766617 0.000009 0.000001
						CHANNELS 3 Xrotation Yrotation Zrotation
						End Site
						{
							OFFSET 0.000000 0.000000 0.000000
						}
					}
				}
				JOINT RightShoulder
				{
					OFFSET 19.745899 -1.480394 6.000106
					CHANNELS 3 Xrotation Yrotation Zrotation
					JOINT RightArm
					{
						OFFSET 11.284122 -0.000030 -0.000014
						CHANNELS 3 Xrotation Yrotation Zrotation
						JOINT RightForeArm
						{
							OFFSET 33.000050 0.000020 0.000016
							CHANNELS 3 Xrotation Yrotation Zrotation
							JOINT RightHand
							{
								OFFSET 25.200014 -0.000003 0.000011
								CHANNELS 3 Xrotation Yrotation Zrotation
								End Site
								{
									OFFSET 0.000000 0.000000 0.000000
								}
							}
						}
					}
				}
				JOINT LeftShoulder
				{
					OFFSET 19.746094 -1.480381 -6.000073
					CHANNELS 3 Xrotation Yrotation Zrotation
					JOINT LeftArm
					{
						OFFSET 11.284140 -0.000016 -0.000006
						CHANNELS 3 Xrotation Yrotation Zrotation
						JOINT LeftForeArm
						{
							OFFSET 33.000088 0.000015 0.000002
							CHANNELS 3 Xrotation Yrotation Zrotation
							JOINT LeftHand
							{
								OFFSET 25.199776 0.000133 0.000416
								CHANNELS 3 Xrotation Yrotation Zrotation
								End Site
								{
									OFFSET 0.000000 0.000000 0.000000
								}
							}
						}
					}
				}
			}
		}
	}
}
MOTION
Frames: 11
Frame Time: 0.033333
-207.731796 91.673500 -434.051910 94.115014 -3.936443 -143.011416 -177.476824 3.482503 159.100091 -19.576859 -2.391422 -20.518281 87.281089 13.235043 -5.561196 21.454558 0.003119 0.000020 170.625188 12.968003 -160.396611 -33.215306 1.006581 9.781481 82.313806 -4.915429 9.145073 21.454551 -0.003092 -0.000000 8.471287 -1.268388 0.017610 6.931855 -2.535473 -0.040594 6.613422 -2.535801 -0.025276 6.481275 -3.561970 -20.718890 -17.979358 7.943756 -25.158013 136.185475 -73.157869 43.493562 4.646610 51.349779 37.263374 -34.854339 -19.686818 1.661007 9.815360 -6.917937 5.330815 174.370713 76.296000 -4.345794 -21.106253 -57.237405 -33.222132 -35.010351 17.875908 -1.521147 13.294718 13.421860 9.853191 
-207.524506 91.611214 -434.321198 94.475921 -3.900206 -145.972412 -176.963890 3.591996 158.204202 -19.693198 -2.495210 -21.511763 87.351098 13.812942 -6.259678 21.454560 0.003102 0.000017 170.479732 12.244601 -158.077707 -34.372476 0.985230 11.529389 82.991381 -6.417305 8.007276 21.454555 -0.003092 0.000000 8.460848 -1.242975 -0.212319 6.915815 -2.471009 -0.498446 6.597424 -2.474103 -0.483518 6.624950 -2.702743 -20.539926 -18.235073 7.145833 -24.527518 134.210881 -73.542935 45.465567 4.762837 52.311534 39.476468 -33.718854 -19.539141 1.625265 9.828016 -5.254490 5.408384 174.338229 76.024445 -4.387084 -19.129528 -57.876168 -34.988747 -34.182720 17.503506 -1.478206 13.618239 13.028815 10.264279 
-207.180496 91.637741 -434.511200 94.821194 -3.820211 -148.545468 -176.432706 3.526795 157.888975 -19.788170 -2.817434 -22.559049 87.179701 14.436955 -6.940928 21.454557 0.003118 0.000019 170.783799 11.353700 -154.441792 -35.038430 0.542892 12.917359 82.628097 -7.433291 7.648430 21.454553 -0.003095 -0.000000 8.434314 -1.188735 -0.446654 6.867071 -2.348882 -0.963059 6.548744 -2.354788 -0.948857 6.760693 -2.182037 -20.106053 -18.322532 6.811014 -23.857902 132.324315 -73.494871 47.382648 4.744005 52.924414 41.720209 -32.810825 -19.639751 1.611415 10.160630 -3.552914 6.069743 173.725711 75.874898 -5.017895 -16.492480 -58.493084 -37.581514 -33.210552 17.129119 -1.432502 13.891404 12.070505 11.295597 
-206.643799 91.454292 -434.598206 94.933701 -4.054965 -150.838021 -176.188445 3.514407 157.304243 -20.717291 -3.151470 -23.239538 87.391191 14.769736 -7.944456 21.454557 0.003121 0.000018 171.774326 10.557911 -151.815899 -34.067013 0.294707 13.759401 83.107112 -8.000713 7.853486 21.454550 -0.003090 -0.000000 8.407640 -1.199954 -0.641533 6.817804 -2.360078 -1.352717 6.499511 -2.368340 -1.338440 6.282498 -2.259815 -19.696391 -17.901969 7.067738 -23.487643 131.328979 -73.305470 48.407712 4.174803 53.066386 42.805530 -32.804688 -19.806324 1.621965 10.532810 -1.461427 8.373410 174.325839 76.002527 -4.400422 -13.670315 -59.296806 -40.487951 -32.113630 16.790656 -1.387231 13.927682 11.129584 11.773881 
-205.952194 91.444893 -434.646912 95.202011 -4.141645 -153.024419 -175.598399 3.309797 156.035576 -21.243458 -3.239541 -23.442043 87.267906 14.773597 -9.056000 21.454562 0.003098 0.000016 173.485644 9.175592 -150.459778 -30.787805 -0.142457 13.722090 84.412013 -8.315150 6.312901 21.454555 -0.003090 -0.000000 8.362932 -1.203639 -0.743067 6.730470 -2.362101 -1.554989 6.412212 -2.371583 -1.540701 5.935267 -2.317967 -19.327490 -17.517658 7.392683 -23.187592 130.029289 -73.424322 49.713935 3.268736 53.395823 42.747582 -33.342064 -19.699242 1.627053 10.970529 -0.146626 10.314555 175.333415 76.210677 -3.364391 -10.726563 -60.229687 -43.311442 -30.417612 15.883919 -1.294526 13.836990 10.370077 10.817524 
-205.117203 91.666458 -434.560394 95.762708 -3.873044 -155.163211 -175.036247 2.503496 155.958313 -22.035158 -3.651781 -24.278208 86.474901 15.127257 -10.617789 21.454562 0.003112 0.000020 175.817211 7.400203 -150.702878 -26.762375 -0.222344 12.871169 84.754608 -7.849579 5.724016 21.454551 -0.003087 0.000000 8.303579 -1.109386 -0.756868 6.610468 -2.173814 -1.575940 6.292253 -2.183423 -1.562790 6.125253 -2.637654 -18.967280 -17.492934 7.888773 -23.070526 129.804289 -73.529234 49.932644 2.265131 53.680133 41.808063 -34.080947 -19.399300 1.624530 11.214123 -0.375362 10.836999 175.658778 76.543526 -3.022605 -7.867577 -61.198550 -46.457506 -27.842334 14.647170 -1.167091 14.247543 9.557813 10.242341 
-204.096802 91.985947 -434.308899 96.696730 -3.297248 -157.020503 -174.973150 0.741809 156.559301 -24.509647 -4.273925 -25.352487 85.087355 15.476425 -12.939235 21.454555 0.003109 0.000017 178.196466 5.332109 -154.061160 -23.367558 0.860455 13.660720 83.776737 -8.415449 5.665440 21.454553 -0.003096 -0.000001 8.310998 -0.935003 -0.765800 6.622614 -1.824732 -1.583871 6.304465 -1.834402 -1.572824 6.453482 -1.991048 -18.734603 -17.781064 7.303183 -22.516610 130.047321 -73.494181 49.689575 1.447443 54.173977 40.144034 -34.730245 -19.652406 1.655878 10.729998 -1.716803 10.693828 175.431947 76.118394 -3.266394 -5.211376 -61.323692 -49.124527 -25.256163 13.597713 -1.056621 14.435224 7.574421 9.623396 
-203.108505 92.171143 -434.006714 97.587537 -2.706092 -159.061213 -176.041282 -1.544407 154.996253 -29.621755 -3.819489 -25.040537 82.993963 14.592183 -15.939515 21.454557 0.003103 0.000019 -179.695898 3.686297 -156.597113 -20.617428 1.714609 13.944803 83.103110 -8.702857 5.215929 21.454551 -0.003089 0.000001 8.355019 -0.759955 -0.731565 6.707455 -1.476311 -1.505912 6.389354 -1.485516 -1.496977 6.260934 -1.715894 -18.542770 -17.307378 6.773872 -22.009689 130.336907 -73.558870 49.390635 0.792437 54.920206 37.753229 -36.183163 -19.973082 1.711392 10.434855 -3.496522 11.160350 175.661810 76.242997 -3.027911 -3.293090 -61.671561 -50.291127 -23.194419 12.670476 -0.966462 13.862508 5.192022 7.991230 
-202.357193 92.081650 -433.542908 98.122832 -1.329390 -161.337401 -178.880414 -5.428999 154.261243 -37.474492 -3.816721 -24.471144 80.159551 13.235564 -19.202682 21.454557 0.003109 0.000017 -178.751720 1.653902 -158.788115 -18.822231 2.227753 13.864709 82.878014 -8.782429 4.546842 21.454551 -0.003091 0.000000 8.306279 -0.457835 -0.642138 6.604941 -0.878341 -1.309297 6.286870 -0.886371 -1.303974 6.645538 -1.571436 -18.388242 -17.638827 6.460759 -21.751012 129.099714 -73.814223 50.620782 0.753958 56.129822 36.338386 -38.359558 -20.658081 1.810892 11.098797 -4.843909 11.031849 175.868150 76.716186 -2.803986 -1.956123 -61.962103 -51.042485 -21.983597 12.319341 -0.927405 13.855527 2.327446 4.502398 
-201.783798 91.759743 -433.200012 98.642015 -0.174837 -163.743103 177.677891 -9.332202 153.826338 -46.521938 -3.337977 -23.440145 76.427119 11.919849 -19.445491 21.454551 0.003115 0.000018 -178.516256 0.518003 -159.133709 -18.998419 2.448242 12.576748 83.536069 -8.046429 3.787627 21.454551 -0.003089 0.000000 8.358918 -0.193832 -0.595772 6.706879 -0.352871 -1.201735 6.388868 -0.360256 -1.199588 6.804443 -1.728300 -18.161470 -18.440746 6.510156 -21.655303 127.192384 -74.421905 52.495922 0.503579 57.277092 35.559611 -41.192253 -21.087750 1.915703 11.239056 -6.165321 9.971064 176.151166 76.912691 -2.509603 -1.977650 -61.351368 -51.134563 -22.010571 12.372913 -0.931193 14.914755 -1.253670 2.206093 
-201.249100 91.379433 -433.152496 99.402782 0.799225 -166.607302 174.934026 -12.573305 155.035158 -54.570093 -2.889484 -21.956072 73.414842 11.091527 -16.914514 21.454562 0.003101 0.000019 -178.320707 -0.138199 -161.712187 -19.934985 3.225930 12.251430 84.412730 -7.925670 3.321329 21.454551 -0.003100 -0.000000 8.562378 0.037316 -0.561046 7.111360 0.108997 -1.118735 6.793334 0.102101 -1.119377 6.543276 -2.139779 -17.752889 -19.195769 6.698874 -21.464344 128.636463 -74.457156 51.032810 0.183976 57.088087 34.452062 -44.367522 -21.083862 2.007806 10.497131 -6.938492 10.838731 174.873497 76.963903 -3.812497 -3.603668 -60.095501 -50.065211 -22.350592 12.161901 -0.922204 15.189905 -3.092213 3.053906 
